<svg width="28583" height="7312" viewBox="0 0 28583 7312" fill="none" xmlns="http://www.w3.org/2000/svg">
<path d="M25865.7 5575.85L25807.2 5651.92C25285 6363.89 24159.7 6471.91 23484.8 6018.74C23086.8 5751.54 22881.4 5366.59 22794.5 4885.54H27263.4C27249.3 4630.53 27250.1 4399.34 27222 4171.67C27049.3 2767.76 26114.2 1734.72 24611.2 1661.9C23738.2 1619.67 22962.9 1861.42 22340.2 2506.52C21435.8 3444 21390.6 5097.5 22054.4 6108.61C22504.5 6794.6 23152.9 7177.38 23958.3 7278.9C25014.9 7411.82 25943.4 7145.98 26673.2 6332.22C26867.9 6115.11 27019.2 5868.49 27129.7 5576.12H25865.7V5575.85ZM24313.7 2686.28C25268.2 2612.64 25936.4 3233.11 26077.7 3990.29H22831.3C22787.7 3400.14 23515.1 2748 24313.7 2686.28Z" fill="black"/>
<path d="M20919.8 7165.47H19754.4V1811.88H20919.8V7165.47Z" fill="black"/>
<path d="M20331.3 1411.22C19897.1 1410.14 19606.3 1124.27 19607.7 700.062C19609 287.227 19906 0.813853 20333.2 0.00171825C20755.7 -0.810417 21057.9 291.558 21059.2 701.687C21060.6 1122.1 20762.8 1412.3 20331.5 1411.22H20331.3Z" fill="black"/>
<path d="M8736.14 4189C8735.6 3995.71 8732.08 3800.52 8706.63 3609.13C8627.58 3018.44 8412.37 2483.78 7921.57 2120.22C7101.85 1512.47 6217.17 1527.9 5317.05 1926.66C5004.38 2065.26 4759.11 2298.34 4537.13 2576.64C4126.73 1974.03 3550.38 1692.22 2845.99 1659.19C2148.1 1626.44 1530.06 1822.97 1024.37 2354.38L930.707 1809.98H0V7159.79H1172.99C1172.99 7091.57 1172.99 7036.61 1172.99 6981.66C1173.81 6058.8 1172.99 5135.95 1176.78 4213.09C1177.87 3937.78 1234.99 3672.21 1361.95 3425.59C1603.15 2956.99 1996.23 2730.13 2515.99 2732.3C3030.08 2734.46 3406.09 2972.42 3623.75 3442.1C3750.17 3714.98 3784.01 4007.35 3783.47 4305.67C3782.93 4657.87 3782.93 5010.33 3782.93 5362.53V5708.77C3782.93 6150.03 3782.65 6591.29 3781.03 7032.55C3781.03 7049.06 3781.57 7063.68 3782.93 7077.22V7175.76H4794.3C4803.24 7175.76 4811.36 7175.76 4819.48 7175.76H4949.96V7069.91C4952.13 7053.4 4952.94 7034.72 4952.94 7013.33C4947.8 6141.37 4950.51 5269.14 4949.96 4397.17C4949.96 4085.58 4980.01 3778.87 5112.93 3492.45C5335.19 3013.02 5713.37 2754.49 6241.26 2733.65C6734.22 2714.16 7120.8 2908.26 7362.28 3350.33C7526.06 3650.28 7565.04 3978.92 7564.77 4314.61C7564.77 5209.85 7564.77 6104.82 7565.04 7000.07C7565.04 7002.23 7564.5 7004.4 7563.96 7006.83V7161.14H8737.49C8737.49 7094.54 8737.49 7039.59 8737.49 6984.64C8737.49 6052.58 8739.12 5120.51 8736.14 4188.45V4189Z" fill="black"/>
<path d="M13670.9 5575.85L13612.5 5651.92C13090.3 6363.89 11964.9 6471.91 11290 6018.74C10892.1 5751.54 10686.6 5366.59 10599.7 4885.54H15068.6C15054.6 4630.53 15055.4 4399.34 15027.2 4171.67C14854.5 2767.76 13919.5 1734.72 12416.5 1661.9C11543.4 1619.67 10768.1 1861.42 10145.5 2506.52C9241.02 3444 9195.81 5097.5 9859.59 6108.61C10309.8 6794.6 10958.1 7177.38 11763.5 7278.9C12820.1 7411.82 13748.6 7145.98 14478.5 6332.22C14673.1 6115.11 14824.4 5868.49 14934.9 5576.12H13670.9V5575.85ZM12119 2686.27C13073.5 2612.64 13741.6 3233.11 13882.9 3990.29H10636.5C10593 3400.14 11320.4 2748 12119 2686.27Z" fill="black"/>
<path d="M16822.3 2584.76L16677.2 1798.07L15754.6 1800.78V7173.32C15754.6 7173.32 15756 7173.32 15756.8 7173.32L15754.6 7176.3H16924.1V7067.47C16926 7052.04 16926.8 7034.72 16926.8 7015.23C16920.8 6263.19 16915.2 5511.15 16928.4 4759.11C16933.3 4480.28 16963.9 4196.03 17028.6 3925.32C17135.8 3478.38 17401.9 3136.74 17851.8 2994.89C18080.6 2922.88 18329.9 2910.97 18571.6 2887.95C18734.6 2872.52 18900 2884.98 19066.2 2884.98V1808.63C18220.8 1777.77 17391.3 1759.36 16822.3 2584.76Z" fill="black"/>
<path d="M28476.3 659.42C28476.3 353.725 28228.5 105.911 27922.8 105.911C27617.1 105.911 27369.3 353.725 27369.3 659.42C27369.3 965.112 27617.1 1212.93 27922.8 1212.93C28228.5 1212.93 28476.3 965.112 28476.3 659.42ZM28582.2 659.42C28582.2 1023.6 28287 1318.84 27922.8 1318.84C27558.6 1318.84 27263.4 1023.6 27263.4 659.42C27263.4 295.232 27558.6 0 27922.8 0C28287 0 28582.2 295.232 28582.2 659.42Z" fill="black"/>
<path d="M28051.8 538.125C28051.8 483.637 28007.6 439.466 27953.1 439.465H27793.8V636.788H27953.1C28007.6 636.788 28051.8 592.613 28051.8 538.125ZM28157.7 538.125C28157.7 623.49 28105.4 696.641 28031.1 727.303L28121.8 908.645L28122.4 909.875C28134.5 935.793 28123.8 966.817 28098.1 979.693C28072.3 992.568 28041.1 982.494 28027.7 957.224L28027 956.011L27920.4 742.699H27793.8V932.33C27793.8 961.575 27770.1 985.285 27740.8 985.285C27711.6 985.285 27687.9 961.575 27687.9 932.33V386.51L27687.9 385.144C27688.6 356.529 27712 333.554 27740.8 333.554H27953.1C28066.1 333.555 28157.7 425.144 28157.7 538.125Z" fill="black"/>
</svg>
